 <svg  version="1.0" xmlns="http://www.w3.org/2000/svg"  width="180.000000pt" height="180.000000pt" viewBox="0 0 180.000000 180.000000"  preserveAspectRatio="xMidYMid meet">  <g transform="translate(0.000000,180.000000) scale(0.100000,-0.100000)" fill="#ffffff" stroke="none"> <path d="M379 1477 c-65 -44 -79 -77 -79 -194 0 -94 2 -104 18 -101 14 3 17 17 20 97 2 75 7 100 23 123 31 43 56 53 159 58 80 4 95 8 98 23 3 15 -7 17 -101 17 -92 0 -108 -3 -138 -23z"/> <path d="M1182 1483 c3 -16 17 -18 101 -21 l98 -3 39 -39 39 -39 3 -98 c3 -84 5 -98 21 -101 15 -3 17 7 17 101 0 92 -3 108 -23 138 -44 65 -77 79 -194 79 -94 0 -104 -2 -101 -17z"/> <path d="M460 1145 l0 -195 195 0 195 0 0 195 0 195 -195 0 -195 0 0 -195z m370 -1 l0 -174 -175 0 -175 0 0 175 0 175 163 2 c89 2 168 1 175 -1 9 -2 12 -46 12 -177z"/> <path d="M545 1290 c-13 -5 29 -9 110 -9 81 0 123 4 110 9 -11 5 -60 9 -110 9 -49 0 -99 -4 -110 -9z"/> <path d="M794 1150 c0 -74 1 -105 3 -67 2 37 2 97 0 135 -2 37 -3 6 -3 -68z"/> <path d="M514 1145 c0 -71 1 -99 3 -62 2 37 2 96 0 130 -2 34 -3 4 -3 -68z"/> <path d="M600 1145 l0 -55 55 0 55 0 0 55 0 55 -55 0 -55 0 0 -55z m96 18 c9 -35 -7 -58 -42 -58 -22 0 -31 6 -38 27 -12 35 6 58 45 58 23 0 30 -6 35 -27z"/> <path d="M540 1000 c36 -11 212 -11 230 0 10 6 -29 9 -120 9 -83 -1 -125 -4 -110 -9z"/> <path d="M990 1265 l0 -55 55 0 55 0 0 55 0 55 -55 0 -55 0 0 -55z m84 32 c12 -9 17 -23 14 -42 -2 -24 -8 -31 -31 -33 -50 -6 -75 38 -41 72 19 19 35 20 58 3z"/> <path d="M1228 1265 l4 -55 54 0 54 0 0 55 0 55 -57 0 -58 0 3 -55z m90 -2 c-3 -36 -5 -38 -38 -38 -29 0 -36 4 -38 23 -6 39 5 52 43 52 36 0 36 -1 33 -37z"/> <path d="M1110 1145 l0 -55 55 0 55 0 0 55 0 55 -55 0 -55 0 0 -55z m90 31 c15 -19 9 -56 -11 -69 -9 -5 -28 -7 -42 -3 -23 5 -27 12 -27 40 0 19 6 37 13 39 24 10 55 7 67 -7z"/> <path d="M990 1028 l0 -58 55 0 55 0 0 54 0 54 -55 4 -55 3 0 -57z m98 1 c3 -32 0 -37 -23 -43 -34 -9 -65 9 -65 37 0 32 20 48 55 45 27 -3 30 -7 33 -39z"/> <path d="M1228 1025 l-3 -55 58 0 57 0 0 55 0 55 -54 0 -54 0 -4 -55z m90 4 c3 -30 -1 -37 -19 -42 -33 -9 -59 9 -59 42 0 36 8 43 45 39 27 -3 30 -7 33 -39z"/> <path d="M480 753 l0 -58 54 3 54 4 4 54 3 54 -57 0 -58 0 0 -57z m84 34 c12 -9 17 -23 14 -42 -2 -24 -8 -31 -31 -33 -50 -6 -75 38 -41 72 19 19 35 20 58 3z"/> <path d="M718 756 l4 -54 54 -4 54 -3 0 58 0 57 -57 0 -58 0 3 -54z m78 36 c12 -7 17 -31 15 -65 -1 -15 -8 -18 -38 -15 -33 3 -38 7 -41 31 -5 45 30 72 64 49z"/> <path d="M990 755 l0 -55 55 0 55 0 0 55 0 55 -55 0 -55 0 0 -55z m88 33 c7 -7 12 -25 12 -40 0 -51 -81 -50 -88 1 -7 42 46 69 76 39z"/> <path d="M1228 755 l4 -55 54 0 54 0 0 55 0 55 -57 0 -58 0 3 -55z m93 24 c8 -16 8 -28 0 -46 -9 -20 -17 -24 -44 -21 -27 2 -33 8 -35 31 -2 16 2 35 9 43 17 21 57 17 70 -7z"/> <path d="M600 635 l0 -55 55 0 55 0 0 55 0 55 -55 0 -55 0 0 -55z m90 31 c15 -19 9 -56 -11 -69 -9 -5 -28 -7 -42 -3 -23 5 -27 12 -27 40 0 19 6 37 13 39 24 10 55 7 67 -7z"/> <path d="M1110 635 l0 -55 55 0 55 0 0 55 0 55 -55 0 -55 0 0 -55z m90 31 c15 -19 9 -56 -11 -69 -9 -5 -28 -7 -42 -3 -23 5 -27 12 -27 40 0 19 6 37 13 39 24 10 55 7 67 -7z"/> <path d="M300 517 c0 -92 3 -108 23 -138 44 -65 77 -79 194 -79 94 0 104 2 101 18 -3 15 -17 17 -101 20 l-98 3 -39 39 -39 39 -3 98 c-3 84 -5 98 -20 101 -16 3 -18 -7 -18 -101z"/> <path d="M1467 613 c-4 -3 -7 -48 -7 -100 l0 -93 -40 -40 -39 -39 -98 -3 c-84 -3 -98 -5 -101 -20 -3 -16 7 -18 98 -18 118 0 146 11 190 72 29 39 30 46 30 145 0 79 -3 103 -13 103 -8 0 -17 -3 -20 -7z"/> <path d="M480 518 l0 -58 55 0 55 0 0 54 0 54 -55 4 -55 3 0 -57z m98 5 c3 -27 -1 -35 -21 -44 -32 -15 -67 3 -67 34 0 32 20 48 55 45 26 -3 30 -8 33 -35z"/> <path d="M773 573 l-51 -4 -4 -55 -3 -54 58 0 57 0 0 60 c0 33 -1 59 -2 58 -2 -1 -26 -3 -55 -5z m35 -55 c3 -33 0 -38 -23 -44 -32 -8 -55 10 -55 46 0 35 8 42 45 38 27 -3 30 -7 33 -40z"/> <path d="M990 521 l0 -61 55 0 55 0 0 55 0 55 -39 0 c-22 0 -46 3 -55 6 -14 5 -16 -3 -16 -55z m97 23 c11 -29 -10 -69 -37 -70 -14 -1 -31 3 -37 8 -16 13 -17 50 -1 66 18 18 68 15 75 -4z"/> <path d="M1283 573 l-51 -4 -4 -55 -3 -54 58 0 57 0 0 60 c0 33 -1 59 -2 58 -2 -1 -26 -3 -55 -5z m37 -28 c7 -8 10 -25 6 -39 -13 -51 -86 -40 -86 13 0 15 3 31 7 34 12 13 60 7 73 -8z"/> </g> </svg> 